<?xml version="1.0" encoding="utf-8"?>
<!-- Generator: Adobe Illustrator 26.3.1, SVG Export Plug-In . SVG Version: 6.00 Build 0)  -->
<svg version="1.1" id="Layer_1" xmlns="http://www.w3.org/2000/svg" xmlns:xlink="http://www.w3.org/1999/xlink" x="0px" y="0px"
	 viewBox="0 0 100 100" style="enable-background:new 0 0 100 100;" xml:space="preserve">
<style type="text/css">
	.st0{fill:#231F20;}
	.st1{fill:none;stroke:#231F20;stroke-width:13.4151;stroke-linecap:round;stroke-linejoin:round;stroke-miterlimit:10;}
	.st2{fill:none;stroke:#231F20;stroke-width:9.9009;stroke-linecap:round;stroke-linejoin:round;stroke-miterlimit:10;}
	.st3{fill:#1F1D1D;}
</style>
<path d="M59.37,61.74c0-3.8,2.38-7.06,5.73-8.36V52.8c0-3.41,1.22-6.53,3.24-8.97c-2.16,0-4.05,0-5.24,0
	c-3.78,0-6.56,1.67-8.19,5.09c-1.32,2.77-3.31,4.66-6.39,5.27c-3.58,0.71-7.24-0.97-9.03-4.16c-0.3-0.54-0.55-1.1-0.85-1.64
	c-1.65-2.94-4.17-4.49-7.52-4.54c-4.09-0.06-15.91-0.02-20-0.02c-0.28,0-0.56,0-0.85,0c0-1.1-0.07-2.08,0.02-3.04
	c0.11-1.24,1.14-2.13,2.38-2.21c0.15-0.01,0.31-0.01,0.46-0.01c17.35,0,50.17,0,67.52,0.01c0.4,0,0.83,0.03,1.21,0.16
	c0.04,0.01,0.07,0.03,0.11,0.05c2.56,0.21,4.93,1.1,6.92,2.5c0-7.33,0-14.66,0-21.99c-0.12-0.47-0.2-0.95-0.35-1.41
	c-1.05-3.08-3.15-4.97-6.39-5.54c-0.17-0.03-0.34-0.09-0.51-0.14c-18.05,0-51.58,0-69.63,0c-1.01,0.35-2.09,0.56-3.01,1.07
	c-2.69,1.5-4.03,3.89-4.06,6.96C4.9,24.03,4.93,27.8,4.93,31.58c0,10.15-0.01,20.3,0,30.45c0,3.93,2.43,7.05,6.16,7.91
	c0.72,0.17,1.48,0.22,2.22,0.22c11.52,0.01,29.95,0.01,46.06,0.01V61.74z M83.62,33.48c-8.15-0.34-23.99-0.11-32.1-0.15
	c-8.12-0.04-23.98-0.04-32.1,0.01c-3.04,0.02-6.11-0.31-9.14,0.32c0-1.21-0.07-2.34,0.02-3.46c0.1-1.17,1.11-2.03,2.29-2.12
	c0.28-0.02,0.56-0.02,0.85-0.02c17.17,0,49.81,0,66.98,0c0.41,0,0.83-0.01,1.23,0.08c0.99,0.22,1.74,1.07,1.89,2.1
	c0.04,0.28,0.08,0.56,0.08,0.84C83.63,31.93,83.62,32.77,83.62,33.48z M10.26,19.76c0.12-1.21,1.03-2.03,2.24-2.2
	c0.33-0.05,0.67-0.04,1-0.04c17.1,0,49.67,0,66.77,0c2.43,0,3.35,0.93,3.36,3.35c0,0.74,0,1.49,0,2.08
	c-8.36-0.31-24.41-0.1-32.72-0.14c-8.3-0.04-24.35-0.03-32.65,0.01c-2.66,0.01-5.34-0.29-8.01,0.36
	C10.24,22,10.15,20.87,10.26,19.76z M91.67,58.33h-2.32V52.8c0-4.69-3.82-8.51-8.51-8.51h-1.68c-4.69,0-8.51,3.82-8.51,8.51v5.53
	h-2.32c-1.88,0-3.41,1.53-3.41,3.41v20.02c0,3.32,2.69,6.02,6.02,6.02h18.14c3.32,0,6.02-2.69,6.02-6.02V61.74
	C95.08,59.86,93.55,58.33,91.67,58.33z M76.21,52.8c0-1.62,1.32-2.94,2.94-2.94h1.68c1.62,0,2.94,1.32,2.94,2.94v5.53h-7.57V52.8z
	 M82.83,78.68h-5.67c-0.68,0-1.17-0.64-1-1.3l0.94-3.51c0.14-0.52,0.03-1.07-0.26-1.53c-0.39-0.59-0.61-1.3-0.61-2.06
	c0-2.23,1.94-4.01,4.23-3.74c1.64,0.19,3,1.48,3.26,3.11c0.16,1-0.07,1.94-0.56,2.7c-0.3,0.45-0.4,1-0.26,1.52l0.94,3.51
	C84.01,78.04,83.51,78.68,82.83,78.68z"/>
</svg>
