<?xml version="1.0" encoding="utf-8"?>
<!-- Generator: Adobe Illustrator 26.5.0, SVG Export Plug-In . SVG Version: 6.00 Build 0)  -->
<svg version="1.1" id="Layer_1" xmlns="http://www.w3.org/2000/svg" xmlns:xlink="http://www.w3.org/1999/xlink" x="0px" y="0px"
	 viewBox="0 0 500 500" style="enable-background:new 0 0 500 500;" xml:space="preserve">
<style type="text/css">
	.st0{fill:url(#SVGID_1_);}
</style>
<g>
	<circle cx="250" cy="250" r="250"/>
	
		<linearGradient id="SVGID_1_" gradientUnits="userSpaceOnUse" x1="123.3692" y1="107.7482" x2="373.3262" y2="396.9868" gradientTransform="matrix(1 0 0 -1 0 502)">
		<stop  offset="0.08" style="stop-color:#E05D84"/>
		<stop  offset="0.97" style="stop-color:#EEB5C7"/>
	</linearGradient>
	<path class="st0" d="M413.35,322.5l-49.09,51.29c-1.07,1.11-2.36,2-3.79,2.61c-1.43,0.61-2.98,0.92-4.55,0.92H90.72
		c-1.11,0-2.2-0.32-3.12-0.91c-0.93-0.59-1.66-1.44-2.1-2.43c-0.44-0.99-0.58-2.09-0.39-3.15c0.19-1.07,0.69-2.06,1.45-2.85
		l49.12-51.29c1.06-1.11,2.35-2,3.78-2.6c1.43-0.61,2.97-0.92,4.53-0.92h265.19c1.11,0,2.2,0.32,3.13,0.91
		c0.93,0.59,1.66,1.44,2.1,2.43c0.44,0.99,0.58,2.09,0.39,3.15C414.61,320.72,414.11,321.71,413.35,322.5z M364.26,219.22
		c-1.07-1.11-2.36-2-3.79-2.61c-1.43-0.61-2.98-0.92-4.55-0.92H90.72c-1.11,0-2.2,0.32-3.12,0.91c-0.93,0.59-1.66,1.44-2.1,2.43
		c-0.44,0.99-0.58,2.09-0.39,3.15c0.19,1.07,0.69,2.06,1.45,2.85l49.12,51.29c1.06,1.11,2.35,2,3.78,2.6
		c1.43,0.61,2.97,0.92,4.53,0.92h265.19c1.11,0,2.2-0.32,3.13-0.91c0.93-0.59,1.66-1.44,2.1-2.43c0.44-0.99,0.58-2.09,0.39-3.15
		c-0.19-1.07-0.69-2.06-1.45-2.85L364.26,219.22z M90.72,182.38h265.2c1.56,0,3.11-0.31,4.55-0.92c1.43-0.61,2.73-1.5,3.79-2.61
		l49.09-51.29c0.76-0.79,1.26-1.78,1.45-2.85c0.19-1.07,0.05-2.16-0.39-3.15c-0.44-0.99-1.17-1.84-2.1-2.43
		c-0.93-0.59-2.02-0.91-3.13-0.91H143.99c-1.56,0-3.1,0.32-4.53,0.92c-1.43,0.61-2.72,1.49-3.78,2.6l-49.11,51.29
		c-0.76,0.79-1.26,1.78-1.45,2.84c-0.19,1.06-0.05,2.16,0.39,3.15c0.44,0.99,1.17,1.84,2.1,2.43
		C88.52,182.06,89.61,182.38,90.72,182.38z"/>
</g>
</svg>
