<?xml version="1.0" encoding="utf-8"?>
<!-- Generator: Adobe Illustrator 26.0.3, SVG Export Plug-In . SVG Version: 6.00 Build 0)  -->
<svg version="1.1" id="Layer_1" xmlns="http://www.w3.org/2000/svg" xmlns:xlink="http://www.w3.org/1999/xlink" x="0px" y="0px"
	 viewBox="0 0 50 50" style="enable-background:new 0 0 50 50;" xml:space="preserve">
<g id="CstIFW_00000135692462505439254470000000926052859019546534_">
	<g>
		<path d="M24.99,0C38.84,0,50,11.18,50,25.06c0,13.75-11.18,24.91-24.98,24.94C11.16,50.03-0.01,38.8,0,24.86
			C0.01,11.17,11.24,0,24.99,0z M41.01,39.78c4.87-4.99,7.58-13.6,4.61-22.02C42.41,8.68,33.85,2.87,24.15,3.16
			C14.9,3.43,6.65,9.87,4.01,18.92c-2.43,8.3,0.56,16.41,4.97,20.84c0.06-0.28,0.12-0.54,0.18-0.81c1.18-4.94,4-8.54,8.69-10.61
			c0.75-0.33,1.47-0.3,2.19,0.11c3.31,1.85,6.62,1.85,9.93-0.01c0.68-0.38,1.37-0.44,2.09-0.14c2.47,1.05,4.54,2.62,6.14,4.78
			C39.67,35.08,40.55,37.33,41.01,39.78z"/>
		<path d="M24.99,7.9c5.5-0.01,9.99,4.47,9.99,9.97c0,5.51-4.46,9.98-9.97,9.99c-5.52,0-9.98-4.44-9.99-9.96
			C15.01,12.39,19.48,7.91,24.99,7.9z"/>
	</g>
</g>
</svg>
