<?xml version="1.0" encoding="utf-8"?>
<!-- Generator: Adobe Illustrator 26.0.3, SVG Export Plug-In . SVG Version: 6.00 Build 0)  -->
<svg version="1.1" id="Layer_1" xmlns="http://www.w3.org/2000/svg" xmlns:xlink="http://www.w3.org/1999/xlink" x="0px" y="0px"
	 viewBox="0 0 35 20" style="enable-background:new 0 0 35 20;" xml:space="preserve">
<style type="text/css">
	.st0{fill:#231F20;}
	.st1{fill:none;stroke:#231F20;stroke-width:2;stroke-linecap:round;stroke-miterlimit:10;}
</style>
<path class="st0" d="M26.25,0.72C25.65,0.05,24.61,0,23.94,0.61c-0.67,0.61-0.72,1.64-0.11,2.31l4.53,4.97
	c0.17,0.18,0.04,0.47-0.21,0.47H2.02c-0.9,0-1.64,0.73-1.64,1.64s0.73,1.64,1.64,1.64h26.14c0.24,0,0.37,0.29,0.21,0.47l-4.53,4.97
	c-0.61,0.67-0.56,1.7,0.11,2.31c0.31,0.29,0.71,0.43,1.1,0.43c0.44,0,0.89-0.18,1.21-0.53l8.29-9.09c0.1-0.11,0.1-0.27,0-0.38
	L26.25,0.72z"/>
<line class="st1" x1="-5.69" y1="-24.9" x2="12.94" y2="-24.9"/>
<polyline class="st1" points="8.38,-29.9 12.94,-24.9 8.38,-19.9 "/>
</svg>
