<svg xmlns="http://www.w3.org/2000/svg" width="100%" height="100%" viewBox="0 0 100 100"><path d="M98.38,52.83l.09-.13a5,5,0,0,0,.39-.72l.06-.14a5.83,5.83,0,0,0,.25-.81s0-.07,0-.1a4.85,4.85,0,0,0,0-1.86s0-.07,0-.1a5.83,5.83,0,0,0-.25-.81L98.86,48a5,5,0,0,0-.39-.72l-.09-.13a5.38,5.38,0,0,0-.52-.64l-.09-.08a2.73,2.73,0,0,0-.25-.23L61.58,15.87a4.95,4.95,0,1,0-6.39,7.56l25.6,21.62H5.67a5,5,0,0,0,0,9.9H80.79L55.19,76.57a4.95,4.95,0,0,0,3.2,8.73,4.9,4.9,0,0,0,3.19-1.17L97.52,53.78a2.73,2.73,0,0,0,.25-.23l.09-.08A5.38,5.38,0,0,0,98.38,52.83Z" fill="#231f20"/></svg>