<svg xmlns="http://www.w3.org/2000/svg" width="100" height="100" viewBox="0 0 100 100"><path d="M84.13,38.42,53.78,2.48a2.73,2.73,0,0,0-.23-.25l-.08-.09a4.55,4.55,0,0,0-.64-.52l-.13-.09A5,5,0,0,0,52,1.14l-.14-.06A5.83,5.83,0,0,0,51,.83l-.1,0a4.85,4.85,0,0,0-1.86,0l-.1,0a5.83,5.83,0,0,0-.81.25L48,1.14a5,5,0,0,0-.72.39l-.13.09a4.55,4.55,0,0,0-.64.52l-.08.09a2.73,2.73,0,0,0-.23.25L15.87,38.42a4.95,4.95,0,1,0,7.56,6.39l21.62-25.6V94.33a5,5,0,1,0,9.9,0V19.21l21.62,25.6a4.95,4.95,0,1,0,7.56-6.39Z" fill="#231f20"/></svg>