<svg xmlns="http://www.w3.org/2000/svg" width="100%" height="100%" viewBox="0 0 100 100"><path d="M94.33,45.05H19.21l25.6-21.62a4.95,4.95,0,1,0-6.39-7.56L2.48,46.22a2.73,2.73,0,0,0-.25.23l-.09.08a5.38,5.38,0,0,0-.52.64l-.09.13a5,5,0,0,0-.39.72l-.06.14A5.83,5.83,0,0,0,.83,49s0,.07,0,.1a4.85,4.85,0,0,0,0,1.86s0,.07,0,.1a5.44,5.44,0,0,0,.25.81l.06.14a5,5,0,0,0,.39.72l.09.13a5.38,5.38,0,0,0,.52.64l.09.08a2.73,2.73,0,0,0,.25.23L38.42,84.13a5,5,0,0,0,7-.58,5,5,0,0,0-.59-7L19.21,55H94.33a5,5,0,1,0,0-9.9Z" fill="#231f20"/></svg>