<svg xmlns="http://www.w3.org/2000/svg" width="500" height="500" viewBox="0 0 500 500"><path d="M330.17,291a12.48,12.48,0,0,0-17.67.15l-48.16,49v-85a12.5,12.5,0,1,0-25,0v85l-48.17-49a12.5,12.5,0,1,0-17.82,17.52l69.57,70.78,0,0c.19.19.4.38.61.56l.29.26a12.46,12.46,0,0,0,6.72,2.82c.42,0,.83.06,1.26.06s.83,0,1.25-.06a12.46,12.46,0,0,0,6.72-2.82l.29-.26c.21-.18.42-.37.61-.56l0,0,69.58-70.78A12.49,12.49,0,0,0,330.17,291Z" fill="#010101"/><circle cx="251.84" cy="211.43" r="13.43" fill="#010101"/><circle cx="251.84" cy="165.59" r="13.43" fill="#010101"/><circle cx="251.84" cy="120.76" r="13.43" fill="#010101"/></svg>