<svg xmlns="http://www.w3.org/2000/svg" width="500" height="500" viewBox="0 0 500 500"><path d="M407.64,198.62a1.72,1.72,0,0,1-.07-.21,162.57,162.57,0,0,0-301.31-19.35L95,151.51A12.5,12.5,0,1,0,71.86,161L95,217.48a12.49,12.49,0,0,0,16.49,6.77l56.42-24.19a12.5,12.5,0,1,0-9.85-23l-29,12.45a137.56,137.56,0,0,1,254.82,16.55,145.77,145.77,0,0,1,2.6,75.92l-1.1,4.71a137.63,137.63,0,0,1-73.45,86.5,12.5,12.5,0,1,0,10.69,22.59A162.53,162.53,0,0,0,409.4,293.27q.09-.28.15-.57l1.17-5A170.82,170.82,0,0,0,407.64,198.62Z" fill="#231f20"/><path d="M115.58,268.68a13.44,13.44,0,1,0-13.43,13.44A13.43,13.43,0,0,0,115.58,268.68Z" fill="#231f20"/><circle cx="122.15" cy="322.6" r="13.43" fill="#231f20"/><path d="M154.05,348.21a13.44,13.44,0,1,0,13.44,13.43A13.43,13.43,0,0,0,154.05,348.21Z" fill="#231f20"/><path d="M202.24,375.08a13.43,13.43,0,1,0,13.43,13.43A13.43,13.43,0,0,0,202.24,375.08Z" fill="#231f20"/><circle cx="255.14" cy="398.95" r="13.43" fill="#231f20"/><path d="M267.86,182v-8.7a12.5,12.5,0,0,0-25,0V182c-18,4.29-30.87,17.73-30.87,34.08v11.45c0,19.93,19,35.53,43.37,35.53,10.51,0,18.37,5.56,18.37,10.54v12.5c0,5-7.86,10.54-18.37,10.54S237,291.1,237,286.13v-2.65a12.5,12.5,0,0,0-25,0v2.65c0,16.35,12.83,29.79,30.87,34.08v8.7a12.5,12.5,0,0,0,25,0v-8.7c18-4.29,30.87-17.73,30.87-34.08v-12.5c0-19.93-19.05-35.54-43.37-35.54-10.51,0-18.37-5.56-18.37-10.53V216.11c0-5,7.86-10.53,18.37-10.53s18.37,5.56,18.37,10.53v5.14a12.5,12.5,0,0,0,25,0v-5.14C298.73,199.76,285.9,186.32,267.86,182Z" fill="#231f20"/></svg>