<svg xmlns="http://www.w3.org/2000/svg" width="100%" height="100%" viewBox="0 0 500 500"><path d="M378.06,290.65a12.5,12.5,0,0,0-16.39,6.63,121.27,121.27,0,0,1-218.44,10.21l36.34,13.23a12.5,12.5,0,1,0,8.56-23.49l-62-22.58a12.5,12.5,0,0,0-7.88-.21l-.32.07a12.5,12.5,0,0,0-9,11.14L88.5,344.71a12.5,12.5,0,1,0,23.63,8.15l10.61-30.75a146.28,146.28,0,0,0,262-15.07A12.5,12.5,0,0,0,378.06,290.65Z" fill="#231f20"/><path d="M405.59,146.23a12.5,12.5,0,0,0-15.81,7.9l-9.67,29A146.31,146.31,0,0,0,111,204.59a12.5,12.5,0,0,0,23.76,7.78,121.29,121.29,0,0,1,225.94-12l-38-13.41a12.5,12.5,0,1,0-8.32,23.57l62.24,22a12.49,12.49,0,0,0,16-7.83l20.9-62.6A12.5,12.5,0,0,0,405.59,146.23Z" fill="#231f20"/></svg>