<?xml version="1.0" encoding="utf-8"?>
<!-- Generator: Adobe Illustrator 26.0.3, SVG Export Plug-In . SVG Version: 6.00 Build 0)  -->
<svg version="1.1" id="Layer_1" xmlns="http://www.w3.org/2000/svg" xmlns:xlink="http://www.w3.org/1999/xlink" x="0px" y="0px"
	 viewBox="0 0 50 50" style="enable-background:new 0 0 50 50;" xml:space="preserve">
<g id="_x39_4yjAX_00000153690035984272038860000013503933586221658275_">
	<g>
		<path d="M34.34,9.91c0.87-1.19,1.73-2.38,2.65-3.63c-0.97-0.5-1.88-1.04-2.84-1.47c-1.73-0.79-3.55-1.33-5.43-1.63
			c-2.02-0.33-4.04-0.36-6.07-0.14c-3.16,0.34-6.11,1.35-8.84,2.98c-2.11,1.26-3.95,2.83-5.55,4.71c-1.83,2.16-3.2,4.57-4.1,7.24
			C3.6,19.63,3.24,21.34,3.1,23.1c-0.24,3.08,0.08,6.08,1.08,9c0.91,2.65,2.27,5.04,4.08,7.18c1.34,1.58,2.86,2.95,4.57,4.1
			c2.75,1.84,5.77,3.02,9.06,3.5c2.04,0.3,4.1,0.32,6.14,0.05c1.95-0.25,3.84-0.78,5.66-1.55c2.36-1,4.49-2.36,6.38-4.08
			c1.76-1.6,3.23-3.45,4.38-5.53c1.31-2.36,2.18-4.89,2.56-7.57c0.13-0.89,0.93-1.34,1.59-1.26c0.82,0.09,1.34,0.73,1.26,1.58
			c-0.14,1.34-0.47,2.65-0.87,3.93c-0.7,2.26-1.71,4.37-3.01,6.34c-1.3,1.96-2.85,3.7-4.64,5.23c-1.75,1.49-3.67,2.72-5.75,3.68
			c-3.09,1.42-6.33,2.18-9.73,2.28c-2.87,0.08-5.67-0.31-8.41-1.2c-2.41-0.78-4.65-1.91-6.72-3.36c-1.84-1.29-3.47-2.8-4.89-4.53
			c-2-2.44-3.5-5.15-4.48-8.16c-0.9-2.76-1.29-5.58-1.21-8.47c0.07-2.32,0.44-4.58,1.15-6.8c0.69-2.18,1.66-4.23,2.91-6.14
			c1.51-2.3,3.35-4.29,5.51-5.99c2.16-1.7,4.54-3.01,7.13-3.92c2.99-1.06,6.08-1.51,9.24-1.39c3.15,0.12,6.18,0.79,9.07,2.08
			c1.67,0.74,3.24,1.65,4.73,2.71c0.62,0.44,0.76,1.35,0.27,2.05c-0.76,1.08-1.57,2.13-2.36,3.2c-0.72,0.98-1.41,1.97-2.13,2.95
			c-1.44,1.97-2.88,3.93-4.32,5.9c-1,1.37-1.99,2.75-3,4.11c-0.2,0.26-0.21,0.47-0.09,0.77c0.46,1.15,0.3,2.25-0.43,3.23
			c-0.78,1.04-1.86,1.49-3.17,1.32c-2.43-0.32-3.75-3.07-2.34-5.2c0.74-1.12,1.84-1.6,3.19-1.49c0.11,0.01,0.28-0.02,0.33-0.1
			c0.81-1.08,1.6-2.17,2.45-3.33c-0.5-0.17-0.95-0.37-1.42-0.47c-2.24-0.47-4.35-0.14-6.18,1.28c-2.44,1.88-3.45,4.4-2.86,7.42
			c0.6,3.08,2.56,5.06,5.58,5.81c2.33,0.58,4.51,0.07,6.41-1.46c0.58-0.46,1.5-0.4,1.98,0.14c0.53,0.58,0.53,1.47-0.05,2
			c-0.97,0.88-2.11,1.49-3.35,1.89c-2.27,0.74-4.56,0.77-6.79-0.09c-3.74-1.45-6.02-4.17-6.71-8.15c-0.41-2.41,0.03-4.7,1.28-6.79
			c1.66-2.78,4.11-4.48,7.32-5c2.26-0.37,4.41,0.01,6.49,1.08c0.87-1.19,1.73-2.38,2.63-3.61c-0.27-0.15-0.51-0.31-0.76-0.43
			c-3.64-1.81-7.41-2.12-11.29-0.9c-2.06,0.64-3.87,1.74-5.47,3.21c-1.94,1.78-3.32,3.93-4.1,6.43c-0.86,2.74-0.92,5.51-0.17,8.29
			c0.58,2.16,1.59,4.1,3.05,5.77c2.46,2.82,5.55,4.53,9.28,5.03c3.45,0.46,6.67-0.24,9.65-2.04c2.28-1.38,4.04-3.26,5.32-5.6
			c0.31-0.56,0.79-0.83,1.42-0.78c0.59,0.05,1,0.37,1.22,0.92c0.16,0.4,0.13,0.8-0.08,1.18c-1.04,1.89-2.35,3.56-3.98,4.99
			c-1.73,1.51-3.67,2.63-5.82,3.38c-2.05,0.71-4.17,1.04-6.35,0.96c-3.3-0.11-6.34-1.07-9.1-2.88c-1.62-1.07-3.03-2.37-4.24-3.91
			c-2.17-2.75-3.39-5.87-3.7-9.34c-0.28-3.12,0.21-6.13,1.59-8.95c0.54-1.09,1.16-2.16,1.86-3.15c0.83-1.17,1.86-2.17,2.97-3.1
			c1.02-0.84,2.11-1.57,3.29-2.15c4.24-2.07,8.63-2.44,13.16-1.07c1.33,0.4,2.58,0.97,3.77,1.68C34.2,9.84,34.26,9.87,34.34,9.91z"
			/>
	</g>
</g>
</svg>
