<?xml version="1.0" encoding="UTF-8"?><svg id="a" xmlns="http://www.w3.org/2000/svg" width="5in" height="5in" viewBox="0 0 360 360"><path d="M212.36,279.83v18.96c0,5.81-4.71,10.52-10.52,10.52h-10.05c-5.81,0-10.52-4.71-10.52-10.52v-19.91c0-4.68-3.09-8.84-7.6-10.1-19.15-5.34-34.48-16.98-45.57-32.76-3.29-4.69-2.27-11.14,2.33-14.55l6.93-5.13c4.54-3.36,10.96-2.57,14.45,1.86,11.82,15.01,27.08,24.11,46.77,24.11s33.66-8.65,33.66-24.68c0-14.1-11.86-20.83-28.53-28.21l-22.12-8.65c-25.96-10.26-46.48-26.28-46.48-53.53,0-24.08,16.02-41.33,38.79-48.43,4.39-1.37,7.37-5.44,7.37-10.03v-19.49c0-5.81,4.71-10.52,10.52-10.52h10.05c5.81,0,10.52,4.71,10.52,10.52v18.66c0,4.69,3.12,8.79,7.63,10.11,15.28,4.46,26.77,13.4,35.42,25.06,3.43,4.63,2.42,11.17-2.19,14.63l-6.84,5.13c-4.46,3.34-10.69,2.58-14.35-1.63-9.41-10.84-20.08-15.81-33.77-15.81s-29.49,5.77-29.49,21.48c0,13.69,11.07,19.79,25.36,26.16,.19,.08,.39,.17,.58,.24l23.43,8.86c29.81,11.54,47.76,28.21,47.76,54.81s-18.87,46.1-45.48,52.61c-4.72,1.15-8.05,5.36-8.05,10.22Z"/></svg>