<?xml version="1.0" encoding="utf-8"?>
<!-- Generator: Adobe Illustrator 26.3.1, SVG Export Plug-In . SVG Version: 6.00 Build 0)  -->
<svg version="1.1" id="Layer_1" xmlns="http://www.w3.org/2000/svg" xmlns:xlink="http://www.w3.org/1999/xlink" x="0px" y="0px"
	 viewBox="0 0 100 100" style="enable-background:new 0 0 100 100;" xml:space="preserve">
<style type="text/css">
	.st0{fill:#231F20;}
	.st1{fill:none;stroke:#231F20;stroke-width:13.4151;stroke-linecap:round;stroke-linejoin:round;stroke-miterlimit:10;}
	.st2{fill:none;stroke:#231F20;stroke-width:9.9009;stroke-linecap:round;stroke-linejoin:round;stroke-miterlimit:10;}
	.st3{fill:#1F1D1D;}
</style>
<g id="Q4mRik.tif">
	<g>
		<path d="M91.88,28.17c0,14.56,0,29.12,0,43.68c-0.04,0.12-0.1,0.23-0.13,0.36c-0.86,4.23-3.87,6.69-8.21,6.69
			c-17.21,0-49.85,0-67.05-0.01c-0.74,0-1.49-0.06-2.21-0.22c-3.72-0.86-6.13-3.97-6.14-7.89c-0.01-10.12,0-20.25,0-30.37
			c0-3.77-0.03-7.54,0.01-11.3c0.03-3.06,1.37-5.44,4.05-6.94c0.92-0.51,2-0.72,3-1.07c18,0,51.44,0,69.45,0
			c0.17,0.05,0.34,0.11,0.51,0.14c3.23,0.58,5.32,2.45,6.37,5.53C91.68,27.22,91.76,27.7,91.88,28.17z M13.46,52.63
			c0.29,0,0.57,0,0.85,0c4.08,0,15.87-0.05,19.94,0.02c3.35,0.05,5.86,1.6,7.5,4.53c0.3,0.54,0.55,1.1,0.85,1.63
			c1.79,3.19,5.43,4.86,9.01,4.15c3.06-0.61,5.05-2.5,6.37-5.26c1.63-3.41,4.4-5.07,8.17-5.08c3.95,0,15.61,0,19.56,0
			c0.27,0,0.55,0,0.82,0c0-1.08,0.05-2.07-0.02-3.06c-0.07-1.02-0.72-1.68-1.66-2.01c-0.37-0.13-0.8-0.16-1.21-0.16
			c-17.3-0.01-50.04-0.01-67.34-0.01c-0.15,0-0.31,0-0.46,0.01c-1.24,0.08-2.26,0.97-2.38,2.2C13.39,50.56,13.46,51.54,13.46,52.63z
			 M13.43,32.02c2.67-0.66,5.34-0.35,7.99-0.36c8.28-0.04,24.28-0.04,32.56-0.01c8.29,0.04,24.3-0.17,32.64,0.14
			c0-0.59,0-1.33,0-2.07c0-2.42-0.93-3.34-3.35-3.34c-17.05,0-49.54,0-66.59,0c-0.33,0-0.67,0-1,0.04c-1.2,0.17-2.12,0.98-2.23,2.19
			C13.34,29.72,13.43,30.85,13.43,32.02z M13.47,42.49c3.03-0.63,6.08-0.3,9.12-0.32c8.1-0.05,23.92-0.05,32.02-0.01
			c8.08,0.04,23.88-0.19,32.01,0.15c0-0.71,0.01-1.55,0-2.4c0-0.28-0.04-0.56-0.08-0.84c-0.15-1.02-0.9-1.87-1.89-2.09
			c-0.39-0.09-0.81-0.08-1.22-0.08c-17.12,0-49.68,0-66.8,0c-0.28,0-0.56,0-0.85,0.02c-1.18,0.09-2.18,0.95-2.28,2.12
			C13.4,40.15,13.47,41.28,13.47,42.49z"/>
	</g>
</g>
</svg>
