<?xml version="1.0" encoding="utf-8"?>
<!-- Generator: Adobe Illustrator 26.0.3, SVG Export Plug-In . SVG Version: 6.00 Build 0)  -->
<svg version="1.1" id="Layer_1" xmlns="http://www.w3.org/2000/svg" xmlns:xlink="http://www.w3.org/1999/xlink" x="0px" y="0px"
	 viewBox="0 0 50 50" style="enable-background:new 0 0 50 50;" xml:space="preserve">
<g id="omoKCe.tif">
	<g>
		<path d="M27.78,11.89c7.17,0,14.33,0,21.5,0c0.62,0,0.65,0,0.65,0.62c0,1.58,0,2.15-0.04,3.73c-0.04,1.33-1.33,2.6-2.74,2.67
			c-1.69,0.08-3.39,0.06-5.08,0.12c-0.76,0.03-1.53,0.08-2.27,0.25c-1.38,0.32-2.1,1.31-2.1,2.73c0,1.96,0,3.92,0,5.88
			c0,1.83,1.24,3.07,3.08,3.09c1.64,0.02,3.27,0,4.91,0.01c0.82,0.01,1.65,0.06,2.42,0.42c1.19,0.56,1.82,1.54,1.86,2.79
			c0.07,2.8,0.06,5.6,0.01,8.4c-0.03,1.79-1.52,3.09-3.48,3.1c-3.83,0.02-7.67,0.01-11.5,0.01c-10.31,0-20.61,0-30.92,0.01
			c-0.96,0-1.88-0.13-2.68-0.71c-0.85-0.61-1.33-1.45-1.34-2.47C-0.01,39.66,0,36.79,0,33.91c0-8.55,0.01-17.1,0.01-25.65
			c0-0.77,0.02-1.54,0.4-2.24c0.58-1.06,1.51-1.63,2.7-1.66c2.62-0.06,5.25-0.05,7.87-0.05C16.3,4.3,21.62,4.3,26.95,4.29
			c6.25-0.01,12.5-0.01,18.76-0.01c0.99,0,1.97,0.07,2.84,0.65c0.98,0.65,1.62,2.05,1.42,3.19c-0.05,0.3-0.25,0.28-0.46,0.28
			c-1.3,0-2.6,0-3.89,0c-12.99,0-25.98,0-38.97,0c-0.31,0-0.62,0.03-0.93,0.06C5.09,8.55,4.61,9.05,4.61,9.99s0.33,1.66,0.97,1.82
			c0.27,0.06,0.55,0.08,0.83,0.08C13.53,11.89,20.66,11.89,27.78,11.89z"/>
		<path d="M45.07,22.32c0.72,0,1.44-0.01,2.17,0c0.87,0.01,1.34,0.46,1.37,1.34c0.02,0.9,0.02,1.8,0,2.7
			c-0.02,0.82-0.47,1.29-1.31,1.3c-1.47,0.03-2.95,0.04-4.42,0.01c-0.92-0.02-1.36-0.44-1.4-1.36c-0.04-0.9-0.04-1.8,0.01-2.69
			c0.05-0.85,0.52-1.27,1.38-1.29C43.59,22.31,44.33,22.32,45.07,22.32z M44.6,24.98c-0.01-0.54-0.41-0.97-0.89-0.96
			c-0.51,0.01-0.94,0.47-0.93,0.99c0.01,0.5,0.43,0.89,0.96,0.89C44.25,25.89,44.61,25.51,44.6,24.98z"/>
	</g>
</g>
</svg>
