<svg version="1.1" id="Layer_1" xmlns="http://www.w3.org/2000/svg" xmlns:xlink="http://www.w3.org/1999/xlink" x="0px" y="0px"
    viewBox="0 0 200 200" style="enable-background:new 0 0 200 200;" xml:space="preserve">
      <style type="text/css">
      .st0{fill:#1D46B4;}
      .st1{fill:url(#SVGID_1_);}
      .st2{fill:url(#SVGID_00000102537295501805139870000012978699082898663327_);}
      .st3{fill:url(#SVGID_00000114042583467655723910000017123873229420215722_);}
      .st4{fill:url(#SVGID_00000103969130473953927900000016761144604152189107_);}
      .st5{fill:url(#SVGID_00000070829767495816353870000016993456621253034930_);}
      .st6{fill:url(#SVGID_00000065075108906269319250000013571810886706427311_);}
      .st7{fill:url(#SVGID_00000054949083375591902580000007016993285612076215_);}
      .st8{fill:url(#SVGID_00000173872133529607234400000005405985231256600728_);}
      .st9{fill:url(#SVGID_00000017483468904758139420000006102148843878536604_);}
      .st10{fill:url(#SVGID_00000003798246913203420970000008307229131013975949_);}
      .st11{fill:url(#SVGID_00000108310368347285467260000013363541206249070779_);}
      .st12{fill:url(#SVGID_00000065761857158355050910000016906771737565161399_);}
      .st13{fill:url(#SVGID_00000087400965545223813600000005231293968390905785_);}
      .st14{fill:url(#SVGID_00000037650898251734071100000010697690163718695565_);}
      .st15{fill:#3D9199;}
      </style>
      <linearGradient id="SVGID_1_" gradientUnits="userSpaceOnUse" x1="24.2112" y1="22.6322" x2="175.0356" y2="176.5988">
      <stop  offset="0" style="stop-color:#53BD9F"/>
      <stop  offset="1" style="stop-color:#32A5D3"/>
      </linearGradient>
      <path class="st1" d="M44.31,134.06c1.01-1.01,2.38-1.58,3.81-1.58H179.8c2.4,0,3.6,2.9,1.9,4.6l-26.02,26
      c-1.01,1.01-2.38,1.58-3.81,1.58H20.2c-2.4,0-3.6-2.9-1.9-4.6L44.31,134.06z M44.31,36.92c1.01-1.01,2.38-1.58,3.81-1.58H179.8
      c2.4,0,3.6,2.9,1.9,4.6l-26.02,26c-1.01,1.01-2.38,1.58-3.81,1.58H20.2c-2.4,0-3.6-2.9-1.9-4.6L44.31,36.92z M155.69,85.18
      c-1.01-1.01-2.38-1.58-3.81-1.58H20.2c-2.4,0-3.6,2.9-1.9,4.6l26.02,26c1.01,1.01,2.38,1.58,3.81,1.58H179.8c2.4,0,3.6-2.9,1.9-4.6
      L155.69,85.18z"/>
    </svg>