<svg version="1.1" id="Layer_1" xmlns="http://www.w3.org/2000/svg" xmlns:xlink="http://www.w3.org/1999/xlink" x="0px" y="0px"
      viewBox="0 0 200 200" style="enable-background:new 0 0 200 200;" xml:space="preserve">
      <style type="text/css">
        .st0{fill:#1D46B4;}
        .st1{fill:url(#SVGID_1_);}
        .st2{fill:url(#SVGID_00000143606053196671184930000014953948433539507855_);}
        .st3{fill:url(#SVGID_00000168107892120139415210000009366118656206472078_);}
        .st4{fill:url(#SVGID_00000127734006036940512180000009408837525751683509_);}
        .st5{fill:url(#SVGID_00000093153944414400357760000005879507879686804122_);}
        .st6{fill:url(#SVGID_00000062160208481458798000000005956580131478102150_);}
        .st7{fill:url(#SVGID_00000072972195371575313890000010567858266572472745_);}
        .st8{fill:url(#SVGID_00000041295460243880971500000015339432248649591959_);}
        .st9{fill:url(#SVGID_00000168086006246126270060000017234018314806366899_);}
        .st10{fill:url(#SVGID_00000052079354533518007060000006793190704337850005_);}
        .st11{fill:url(#SVGID_00000106109487741307787270000010557031847427742345_);}
        .st12{fill:url(#SVGID_00000145052002694374605430000003318123792268264081_);}
        .st13{fill:url(#SVGID_00000106104844785528316470000014610833341591200172_);}
        .st14{fill:url(#SVGID_00000072282207354872286780000009477506406035070905_);}
        .st15{fill:#3D9199;}
      </style>
      <g id="k1y80g.tif">
        <g>
          <linearGradient id="SVGID_1_" gradientUnits="userSpaceOnUse" x1="13.7911" y1="100" x2="186.2089" y2="100">
            <stop  offset="0" style="stop-color:#53BD9F"/>
            <stop  offset="1" style="stop-color:#32A5D3"/>
          </linearGradient>
          <path class="st1" d="M107.26,13.8c1.95,0.34,3.89,0.72,5.85,1.02c15.99,2.43,30.25,8.83,42.51,19.31
            c14.67,12.54,24.04,28.35,28.38,47.21c2.01,8.72,2.6,17.52,1.94,26.34c-1.23,16.5-6.82,31.43-17.46,44.29
            c-0.7,0.84-1.49,1.61-2.25,2.39c-0.31,0.32-0.67,0.59-1.23,1.08c-0.75-0.7-1.48-1.33-2.15-2.02
            c-5.57-5.77-11.14-11.55-16.69-17.33c-2.03-2.12-2.05-2.39-0.39-4.89c4.09-6.14,6.94-12.81,8.51-20.02
            c2.39-10.96,1.09-21.66-3.15-31.88c-7.93-19.13-22.39-30.56-42.78-33.73c-19.28-3-35.91,2.93-49.19,17.27
            c-7.81,8.43-12.46,18.55-13.81,30.06c-2.24,19.12,3.92,35.26,17.87,48.29c7.83,7.31,17.29,11.75,27.98,13.3
            c8.14,1.18,16.16,0.68,24.06-1.69c6.29-1.89,9.23-0.72,13.7,4.22c4.21,4.66,8.88,8.9,13.35,13.32c0.64,0.63,1.32,1.22,2.22,2.05
            c-0.91,0.76-1.61,1.44-2.39,2c-9.12,6.5-19.34,10.07-30.42,11.25c-3.16,0.34-6.35,0.46-9.53,0.54
            c-12.03,0.27-23.53-2.33-34.63-6.78c-11.14-4.47-21.08-10.85-29.45-19.46c-12.14-12.49-19.94-27.32-22.83-44.56
            c-0.83-4.92-1.5-9.94-1.5-14.91c0.01-16.3,4.2-31.52,12.74-45.47c8.75-14.28,20.68-25.14,35.68-32.53
            c9.06-4.46,18.64-7.3,28.76-8.17c0.52-0.04,1.01-0.33,1.51-0.5C97.41,13.8,102.34,13.8,107.26,13.8z"/>
          <path class="st15" d="M134.12,100.06c0.09,18.66-14.84,34.17-34.04,34.08c-19.28-0.09-34.21-14.67-34.16-34.22
            c0.06-20.15,15.92-34.22,34.3-34.09C119.37,65.95,134.27,81.31,134.12,100.06z"/>
        </g>
      </g>
    </svg>