<svg xmlns="http://www.w3.org/2000/svg" width="100%" height="100%" viewBox="0 0 100 100"><path d="M83.55,54.6a5,5,0,0,0-7,.59L55,80.79V5.67a4.95,4.95,0,0,0-9.9,0V80.79L23.43,55.19a4.95,4.95,0,1,0-7.56,6.39L46.22,97.52a2.73,2.73,0,0,0,.23.25l.08.09a5.38,5.38,0,0,0,.64.52l.13.09a5,5,0,0,0,.72.39l.14.06a5.83,5.83,0,0,0,.81.25l.1,0a4.85,4.85,0,0,0,1.86,0l.1,0a5.44,5.44,0,0,0,.81-.25l.14-.06a5,5,0,0,0,.72-.39l.13-.09a5.38,5.38,0,0,0,.64-.52l.08-.09a2.73,2.73,0,0,0,.23-.25L84.13,61.58A5,5,0,0,0,83.55,54.6Z" fill="#231f20"/></svg>