<?xml version="1.0" encoding="utf-8"?>
<!-- Generator: Adobe Illustrator 26.3.1, SVG Export Plug-In . SVG Version: 6.00 Build 0)  -->
<svg version="1.1" id="Layer_1" xmlns="http://www.w3.org/2000/svg" xmlns:xlink="http://www.w3.org/1999/xlink" x="0px" y="0px"
	 viewBox="0 0 100 100" style="enable-background:new 0 0 100 100;" xml:space="preserve">
<style type="text/css">
	.st0{fill:#231F20;}
	.st1{fill:none;stroke:#231F20;stroke-width:13.4151;stroke-linecap:round;stroke-linejoin:round;stroke-miterlimit:10;}
	.st2{fill:none;stroke:#231F20;stroke-width:9.9009;stroke-linecap:round;stroke-linejoin:round;stroke-miterlimit:10;}
	.st3{fill:#1F1D1D;}
</style>
<path class="st0" d="M87.71,95.56c-2.4,0-4.65-0.93-6.35-2.63L50,61.57L18.64,92.93c-1.7,1.7-3.95,2.63-6.35,2.63
	s-4.65-0.93-6.35-2.63c-3.5-3.5-3.5-9.2,0-12.7L37.3,48.87L5.94,17.51c-3.5-3.5-3.5-9.2,0-12.7c1.7-1.7,3.95-2.63,6.35-2.63
	s4.65,0.93,6.35,2.63L50,36.17L81.36,4.81c1.7-1.7,3.95-2.63,6.35-2.63c2.4,0,4.65,0.93,6.35,2.63c3.5,3.5,3.5,9.2,0,12.7
	L62.7,48.87l31.36,31.36c3.5,3.5,3.5,9.2,0,12.7C92.36,94.63,90.11,95.56,87.71,95.56z"/>
</svg>
