<?xml version="1.0" encoding="UTF-8"?><svg id="a" xmlns="http://www.w3.org/2000/svg" width="5in" height="5in" viewBox="0 0 360 360"><path d="M212.82,149.61c.97,1.05,1.91,2.15,2.82,3.29,1.34,1.68,3.79,1.94,5.49,.62l13.94-10.93c1.63-1.28,2.01-3.6,.84-5.31-6.84-9.98-16.16-17.83-27.54-22.58-1.45-.61-2.39-2.04-2.39-3.62v-19.93c0-2.18-1.76-3.94-3.94-3.94h-11.74c-2.18,0-3.94,1.76-3.94,3.94v14.56c0,2.2-1.8,3.94-4,3.94-.07,0-.14,0-.22,0-1.19,0-2.37,.03-3.54,.09-2.24,.11-4.1-1.7-4.1-3.93v-14.65c0-2.18-1.76-3.94-3.94-3.94h-11.74c-2.18,0-3.94,1.76-3.94,3.94v21.16c0,1.54-.9,2.95-2.3,3.58-24.03,10.78-40.47,34.46-40.47,62.72s16.37,52.09,40.31,62.91c1.4,.63,2.29,2.04,2.29,3.57v23.73c0,2.18,1.76,3.94,3.94,3.94h12.09c2.18,0,3.94-1.76,3.94-3.94v-17.13c0-2.24,1.86-4.04,4.09-3.93,1.12,.05,2.24,.08,3.38,.08h.04c2.2,0,4,1.74,4,3.94v17.05c0,2.18,1.76,3.94,3.94,3.94h12.09c2.18,0,3.94-1.76,3.94-3.94v-22.58c0-1.57,.92-2.99,2.36-3.61,11.18-4.75,20.43-12.53,27.33-22.4,1.2-1.72,.81-4.08-.85-5.36l-13.91-10.72c-1.7-1.31-4.12-1-5.48,.66-.92,1.13-1.87,2.21-2.84,3.24-2.43,2.58-6.78,.8-6.78-2.74v-53.06c0-3.59,4.41-5.31,6.85-2.67Zm-57.95,51.2c0,3.94-5.18,5.46-7.27,2.12-4.27-6.84-6.68-15.16-6.68-24.31s2.41-17.19,6.69-23.99c2.1-3.34,7.27-1.81,7.27,2.12v44.06Zm31.48,16.97c0,2.15-1.72,3.94-3.87,3.94h-.08c-1.47,0-2.91-.07-4.33-.21-2.03-.2-3.58-1.89-3.58-3.93v-77.65c0-2.04,1.55-3.73,3.58-3.93,1.42-.14,2.86-.21,4.33-.21h.08c2.15,0,3.87,1.79,3.87,3.94v78.05Z"/><path d="M180,47.63c-72.99,0-132.37,59.38-132.37,132.37s59.38,132.37,132.37,132.37,132.37-59.38,132.37-132.37S252.99,47.63,180,47.63Zm0,241.79c-60.33,0-109.42-49.08-109.42-109.42s49.08-109.42,109.42-109.42,109.42,49.08,109.42,109.42-49.08,109.42-109.42,109.42Z"/></svg>