<?xml version="1.0" encoding="utf-8"?>
<!-- Generator: Adobe Illustrator 26.3.1, SVG Export Plug-In . SVG Version: 6.00 Build 0)  -->
<svg version="1.1" id="Layer_1" xmlns="http://www.w3.org/2000/svg" xmlns:xlink="http://www.w3.org/1999/xlink" x="0px" y="0px"
	 viewBox="0 0 100 100" style="enable-background:new 0 0 100 100;" xml:space="preserve">
<style type="text/css">
	.st0{fill:#231F20;}
	.st1{fill:none;stroke:#231F20;stroke-width:13.4151;stroke-linecap:round;stroke-linejoin:round;stroke-miterlimit:10;}
	.st2{fill:none;stroke:#231F20;stroke-width:9.9009;stroke-linecap:round;stroke-linejoin:round;stroke-miterlimit:10;}
	.st3{fill:#1F1D1D;}
</style>
<path class="st3" d="M59.06,83.11c-4.66,2.01-9.8,3.13-15.19,3.13c-21.23,0-38.51-17.27-38.51-38.51
	c0-21.23,17.27-38.51,38.51-38.51c19.29,0,35.31,14.26,38.08,32.79c-0.49-0.05-0.99-0.08-1.5-0.08h-1.68
	c-0.83,0-1.64,0.08-2.42,0.21c-2.66-15.52-16.21-27.38-32.48-27.38c-18.18,0-32.96,14.79-32.96,32.96c0,7.57,2.57,14.55,6.88,20.12
	c2.57-5.55,9.69-9.93,18.76-11.57c-5.33-2.83-8.97-8.43-8.97-14.89c0-9.3,7.54-16.84,16.84-16.84c9.3,0,16.84,7.54,16.84,16.84
	c0,6.46-3.63,12.06-8.97,14.89c3.27,0.59,6.28,1.54,8.92,2.77c-1.34,1.56-2.15,3.58-2.15,5.79V83.11z M94.64,64.83v19.95
	c0,3.31-2.68,5.99-5.99,5.99H70.58c-3.31,0-5.99-2.68-5.99-5.99V64.83c0-1.88,1.52-3.4,3.4-3.4h2.32v-5.51
	c0-4.67,3.8-8.48,8.48-8.48h1.68c4.67,0,8.48,3.8,8.48,8.48v5.51h2.32C93.12,61.44,94.64,62.96,94.64,64.83z M75.84,61.44h7.54
	v-5.51c0-1.62-1.32-2.93-2.93-2.93h-1.68c-1.62,0-2.93,1.32-2.93,2.93V61.44z M83.43,80.41l-0.93-3.5
	c-0.14-0.52-0.04-1.07,0.26-1.51c0.49-0.75,0.72-1.69,0.56-2.69c-0.26-1.62-1.61-2.91-3.25-3.1c-2.28-0.27-4.21,1.5-4.21,3.73
	c0,0.76,0.22,1.46,0.61,2.05c0.29,0.45,0.4,1,0.26,1.52l-0.93,3.5c-0.17,0.65,0.32,1.3,1,1.3h5.65
	C83.11,81.71,83.61,81.07,83.43,80.41z"/>
</svg>
