<svg width="500" height="500" viewBox="0 0 500 500" fill="none" xmlns="http://www.w3.org/2000/svg">
<path d="M313.016 242.404V241.007C313.016 240.475 312.804 239.964 312.426 239.588C312.047 239.211 311.534 239 310.999 239C310.464 239 309.951 239.211 309.573 239.588C309.194 239.964 308.982 240.475 308.982 241.007V242.404C306.077 243.093 304 245.251 304 247.876V249.715C304 252.915 307.066 255.42 310.999 255.42C312.695 255.42 313.964 256.312 313.964 257.112V259.119C313.964 259.922 312.695 260.811 310.999 260.811C309.303 260.811 308.036 259.922 308.036 259.124V258.698C308.036 258.166 307.824 257.656 307.445 257.279C307.067 256.903 306.554 256.691 306.019 256.691C305.484 256.691 304.971 256.903 304.592 257.279C304.214 257.656 304.002 258.166 304.002 258.698V259.124C304.002 261.749 306.072 263.907 308.984 264.596V265.993C308.984 266.525 309.196 267.036 309.574 267.412C309.953 267.789 310.466 268 311.001 268C311.536 268 312.049 267.789 312.427 267.412C312.806 267.036 313.018 266.525 313.018 265.993V264.596C315.923 263.907 318 261.749 318 259.124V257.117C318 253.917 314.926 251.41 311.001 251.41C309.305 251.41 308.036 250.517 308.036 249.719V247.881C308.036 247.078 309.305 246.19 311.001 246.19C312.697 246.19 313.965 247.083 313.965 247.881V248.706C313.965 249.239 314.178 249.749 314.556 250.125C314.935 250.502 315.448 250.713 315.983 250.713C316.518 250.713 317.031 250.502 317.409 250.125C317.787 249.749 318 249.239 318 248.706V247.881C317.998 245.256 315.928 243.098 313.016 242.404Z" fill="#231F20"/>
<path fill-rule="evenodd" clip-rule="evenodd" d="M124 97C124 71.5947 144.595 51 170 51H331C356.405 51 377 71.5947 377 97V327C377 352.405 356.405 373 331 373H273.133V350H331C343.703 350 354 339.703 354 327V97C354 84.2972 343.703 74 331 74H170C157.297 74 147 84.2972 147 97V327C147 339.703 157.297 350 170 350H227.867V373H170C144.595 373 124 352.405 124 327V97Z" fill="#231F20"/>
<path fill-rule="evenodd" clip-rule="evenodd" d="M181.5 120C181.5 113.649 186.649 108.5 193 108.5H308C314.351 108.5 319.5 113.649 319.5 120C319.5 126.351 314.351 131.5 308 131.5H193C186.649 131.5 181.5 126.351 181.5 120ZM181.5 177.5C181.5 171.149 186.649 166 193 166H308C314.351 166 319.5 171.149 319.5 177.5C319.5 183.851 314.351 189 308 189H193C186.649 189 181.5 183.851 181.5 177.5ZM181.5 235C181.5 228.649 186.649 223.5 193 223.5H250.5C256.851 223.5 262 228.649 262 235C262 241.351 256.851 246.5 250.5 246.5H193C186.649 246.5 181.5 241.351 181.5 235Z" fill="#231F20"/>
<path d="M244.985 447.411L245.179 447.59C246.458 448.647 248.027 449.298 249.682 449.46C249.957 449.46 250.239 449.5 250.52 449.5C250.802 449.5 251.083 449.5 251.358 449.46C253.013 449.298 254.582 448.647 255.861 447.59L256.055 447.411C256.196 447.291 256.337 447.171 256.471 447.038L303.096 399.941C304.654 398.367 305.519 396.244 305.5 394.038C305.481 391.832 304.58 389.723 302.996 388.176C301.411 386.63 299.273 385.771 297.051 385.79C294.829 385.809 292.706 386.703 291.148 388.276L258.876 420.881L258.876 299.818C258.876 297.612 257.994 295.496 256.423 293.936C254.852 292.376 252.722 291.5 250.5 291.5C248.278 291.5 246.148 292.376 244.577 293.936C243.006 295.496 242.124 297.612 242.124 299.818L242.124 420.861L209.852 388.256C208.294 386.683 206.171 385.789 203.949 385.77C201.727 385.751 199.589 386.61 198.004 388.156C196.42 389.703 195.519 391.812 195.5 394.018C195.481 396.224 196.346 398.348 197.904 399.921L244.529 447.018C244.704 447.171 244.844 447.291 244.985 447.411Z" fill="#231F20"/>
<path d="M277.5 254C277.5 235.498 292.498 220.5 311 220.5C329.502 220.5 344.5 235.498 344.5 254C344.5 272.502 329.502 287.5 311 287.5C292.498 287.5 277.5 272.502 277.5 254ZM334.45 254C334.45 241.049 323.951 230.55 311 230.55C298.049 230.55 287.55 241.049 287.55 254C287.55 266.951 298.049 277.45 311 277.45C323.951 277.45 334.45 266.951 334.45 254Z" fill="#231F20"/>
</svg>
