<svg width="500" height="500" viewBox="0 0 500 500" fill="none" xmlns="http://www.w3.org/2000/svg">
<path d="M259.574 155.494V149.136C259.574 146.713 258.618 144.389 256.915 142.676C255.213 140.963 252.904 140 250.496 140C248.089 140 245.78 140.963 244.077 142.676C242.375 144.389 241.419 146.713 241.419 149.136V155.494C228.347 158.63 219 168.452 219 180.402V188.77C219 203.336 232.798 214.737 250.496 214.737C258.129 214.737 263.837 218.801 263.837 222.441V231.576C263.837 235.231 258.129 239.28 250.496 239.28C242.864 239.28 237.163 235.231 237.163 231.598V229.661C237.163 227.239 236.206 224.915 234.504 223.202C232.802 221.488 230.493 220.526 228.085 220.526C225.677 220.526 223.369 221.488 221.666 223.202C219.964 224.915 219.007 227.239 219.007 229.661V231.598C219.007 243.548 228.325 253.37 241.426 256.506V262.864C241.426 265.287 242.382 267.611 244.085 269.324C245.787 271.037 248.096 272 250.504 272C252.911 272 255.22 271.037 256.923 269.324C258.625 267.611 259.581 265.287 259.581 262.864V256.506C272.653 253.37 282 243.548 282 231.598V222.463C282 207.897 268.165 196.488 250.504 196.488C242.871 196.488 237.163 192.424 237.163 188.792V180.424C237.163 176.769 242.871 172.728 250.504 172.728C258.136 172.728 263.844 176.791 263.844 180.424V184.18C263.844 186.603 264.801 188.927 266.503 190.64C268.206 192.353 270.515 193.316 272.922 193.316C275.33 193.316 277.639 192.353 279.341 190.64C281.044 188.927 282 186.603 282 184.18V180.424C281.993 168.474 272.675 158.651 259.574 155.494Z" fill="#231F20"/>
<path d="M269.781 358.724C308.583 353.699 344.017 334.092 368.887 303.887C393.757 273.682 406.197 235.143 403.681 196.097C401.165 157.052 383.882 120.428 355.341 93.6646C326.8 66.9009 289.143 52.0042 250.016 52C210.89 51.9958 173.229 66.8845 144.683 93.6421C116.136 120.4 98.8451 157.02 96.3208 196.065C93.7966 235.109 106.229 273.651 131.092 303.862C155.955 334.072 191.386 353.686 230.187 358.72L233.221 335.332C200.362 331.069 170.357 314.459 149.302 288.875C128.246 263.291 117.718 230.651 119.855 197.586C121.993 164.521 136.636 133.509 160.811 110.849C184.986 88.1888 216.879 75.5802 250.014 75.5837C283.148 75.5872 315.039 88.2027 339.209 110.868C363.379 133.533 378.016 164.548 380.146 197.614C382.277 230.68 371.742 263.317 350.681 288.896C329.619 314.476 299.611 331.08 266.751 335.336L269.781 358.724Z" fill="#231F20"/>
<path d="M244.485 446.911L244.679 447.09C245.958 448.147 247.527 448.798 249.182 448.96C249.457 448.96 249.739 449 250.02 449C250.302 449 250.583 449 250.858 448.96C252.513 448.798 254.082 448.147 255.361 447.09L255.555 446.911C255.696 446.791 255.837 446.671 255.971 446.538L302.596 399.441C304.154 397.867 305.019 395.744 305 393.538C304.981 391.332 304.08 389.223 302.496 387.676C300.911 386.13 298.773 385.271 296.551 385.29C294.329 385.309 292.206 386.203 290.648 387.776L258.376 420.381L258.376 299.318C258.376 297.112 257.494 294.996 255.923 293.436C254.352 291.876 252.222 291 250 291C247.778 291 245.648 291.876 244.077 293.436C242.506 294.996 241.624 297.112 241.624 299.318L241.624 420.361L209.352 387.756C207.794 386.183 205.671 385.289 203.449 385.27C201.227 385.251 199.089 386.11 197.504 387.656C195.92 389.203 195.019 391.312 195 393.518C194.981 395.724 195.846 397.848 197.404 399.421L244.029 446.518C244.204 446.671 244.344 446.791 244.485 446.911Z" fill="#231F20"/>
</svg>
