<svg width="500" height="500" viewBox="0 0 500 500" fill="none" xmlns="http://www.w3.org/2000/svg">
<path fill-rule="evenodd" clip-rule="evenodd" d="M377 403.5C377 428.905 356.405 449.5 331 449.5H170C144.595 449.5 124 428.905 124 403.5L124 173.5C124 148.095 144.595 127.5 170 127.5H227.867V150.5H170C157.297 150.5 147 160.797 147 173.5L147 403.5C147 416.203 157.297 426.5 170 426.5H331C343.703 426.5 354 416.203 354 403.5L354 173.5C354 160.797 343.703 150.5 331 150.5H273.133V127.5H331C356.405 127.5 377 148.095 377 173.5L377 403.5Z" fill="#231F20"/>
<path fill-rule="evenodd" clip-rule="evenodd" d="M181.5 236.5C181.5 230.149 186.649 225 193 225H308C314.351 225 319.5 230.149 319.5 236.5C319.5 242.851 314.351 248 308 248H193C186.649 248 181.5 242.851 181.5 236.5ZM181.5 294C181.5 287.649 186.649 282.5 193 282.5H308C314.351 282.5 319.5 287.649 319.5 294C319.5 300.351 314.351 305.5 308 305.5H193C186.649 305.5 181.5 300.351 181.5 294ZM181.5 351.5C181.5 345.149 186.649 340 193 340H250.5C256.851 340 262 345.149 262 351.5C262 357.851 256.851 363 250.5 363H193C186.649 363 181.5 357.851 181.5 351.5Z" fill="#231F20"/>
<path d="M256.015 53.0894L255.821 52.9097C254.542 51.8532 252.973 51.2019 251.318 51.0399C251.043 51.0399 250.761 51 250.48 51C250.198 51 249.917 51 249.642 51.0399C247.987 51.2019 246.418 51.8532 245.139 52.9097L244.945 53.0894C244.804 53.2091 244.663 53.3289 244.529 53.462L197.904 100.559C196.346 102.133 195.481 104.256 195.5 106.462C195.519 108.668 196.42 110.777 198.004 112.324C199.589 113.87 201.727 114.729 203.949 114.71C206.171 114.691 208.294 113.797 209.852 112.224L242.124 79.619L242.124 200.682C242.124 202.888 243.006 205.004 244.577 206.564C246.148 208.124 248.278 209 250.5 209C252.722 209 254.852 208.124 256.423 206.564C257.994 205.004 258.876 202.888 258.876 200.682L258.876 79.639L291.148 112.244C292.706 113.817 294.829 114.711 297.051 114.73C299.273 114.749 301.411 113.89 302.996 112.344C304.58 110.797 305.481 108.688 305.5 106.482C305.519 104.276 304.654 102.152 303.096 100.579L256.471 53.482C256.296 53.3289 256.156 53.2091 256.015 53.0894Z" fill="#231F20"/>
<path d="M312.516 359.404V358.007C312.516 357.475 312.304 356.964 311.926 356.588C311.547 356.211 311.034 356 310.499 356C309.964 356 309.451 356.211 309.073 356.588C308.694 356.964 308.482 357.475 308.482 358.007V359.404C305.577 360.093 303.5 362.251 303.5 364.876V366.715C303.5 369.915 306.566 372.42 310.499 372.42C312.195 372.42 313.464 373.312 313.464 374.112V376.119C313.464 376.922 312.195 377.811 310.499 377.811C308.803 377.811 307.536 376.922 307.536 376.124V375.698C307.536 375.166 307.324 374.656 306.945 374.279C306.567 373.903 306.054 373.691 305.519 373.691C304.984 373.691 304.471 373.903 304.092 374.279C303.714 374.656 303.502 375.166 303.502 375.698V376.124C303.502 378.749 305.572 380.907 308.484 381.596V382.993C308.484 383.525 308.696 384.036 309.074 384.412C309.453 384.789 309.966 385 310.501 385C311.036 385 311.549 384.789 311.927 384.412C312.306 384.036 312.518 383.525 312.518 382.993V381.596C315.423 380.907 317.5 378.749 317.5 376.124V374.117C317.5 370.917 314.426 368.41 310.501 368.41C308.805 368.41 307.536 367.517 307.536 366.719V364.881C307.536 364.078 308.805 363.19 310.501 363.19C312.197 363.19 313.465 364.083 313.465 364.881V365.706C313.465 366.239 313.678 366.749 314.056 367.125C314.435 367.502 314.948 367.713 315.483 367.713C316.018 367.713 316.531 367.502 316.909 367.125C317.287 366.749 317.5 366.239 317.5 365.706V364.881C317.498 362.256 315.428 360.098 312.516 359.404Z" fill="#231F20"/>
<path d="M277.5 370.5C277.5 351.998 292.498 337 311 337C329.502 337 344.5 351.998 344.5 370.5C344.5 389.002 329.502 404 311 404C292.498 404 277.5 389.002 277.5 370.5ZM334.45 370.5C334.45 357.549 323.951 347.05 311 347.05C298.049 347.05 287.55 357.549 287.55 370.5C287.55 383.451 298.049 393.95 311 393.95C323.951 393.95 334.45 383.451 334.45 370.5Z" fill="#231F20"/>
</svg>
