<svg width="500" height="500" viewBox="0 0 500 500" fill="none" xmlns="http://www.w3.org/2000/svg">
<path d="M259.574 244.494V238.136C259.574 235.713 258.618 233.389 256.915 231.676C255.213 229.963 252.904 229 250.496 229C248.089 229 245.78 229.963 244.077 231.676C242.375 233.389 241.419 235.713 241.419 238.136V244.494C228.347 247.63 219 257.452 219 269.402V277.77C219 292.336 232.798 303.737 250.496 303.737C258.129 303.737 263.837 307.801 263.837 311.441V320.576C263.837 324.231 258.129 328.28 250.496 328.28C242.864 328.28 237.163 324.231 237.163 320.598V318.661C237.163 316.239 236.206 313.915 234.504 312.202C232.802 310.488 230.493 309.526 228.085 309.526C225.677 309.526 223.369 310.488 221.666 312.202C219.964 313.915 219.007 316.239 219.007 318.661V320.598C219.007 332.548 228.325 342.37 241.426 345.506V351.864C241.426 354.287 242.382 356.611 244.085 358.324C245.787 360.037 248.096 361 250.504 361C252.911 361 255.22 360.037 256.923 358.324C258.625 356.611 259.581 354.287 259.581 351.864V345.506C272.653 342.37 282 332.548 282 320.598V311.463C282 296.897 268.165 285.488 250.504 285.488C242.871 285.488 237.163 281.424 237.163 277.792V269.424C237.163 265.769 242.871 261.728 250.504 261.728C258.136 261.728 263.844 265.791 263.844 269.424V273.18C263.844 275.603 264.801 277.927 266.503 279.64C268.206 281.353 270.515 282.316 272.922 282.316C275.33 282.316 277.639 281.353 279.341 279.64C281.044 277.927 282 275.603 282 273.18V269.424C281.993 257.474 272.675 247.651 259.574 244.494Z" fill="#231F20"/>
<path d="M255.515 54.0894L255.321 53.9097C254.042 52.8532 252.473 52.2019 250.818 52.0399C250.543 52.0399 250.261 52 249.98 52C249.698 52 249.417 52 249.142 52.0399C247.487 52.2019 245.918 52.8532 244.639 53.9097L244.445 54.0894C244.304 54.2091 244.163 54.3289 244.029 54.462L197.404 101.559C195.846 103.133 194.981 105.256 195 107.462C195.019 109.668 195.92 111.777 197.504 113.324C199.089 114.87 201.227 115.729 203.449 115.71C205.671 115.691 207.794 114.797 209.352 113.224L241.624 80.619L241.624 201.682C241.624 203.888 242.506 206.004 244.077 207.564C245.648 209.124 247.778 210 250 210C252.222 210 254.352 209.124 255.923 207.564C257.494 206.004 258.376 203.888 258.376 201.682L258.376 80.639L290.648 113.244C292.206 114.817 294.329 115.711 296.551 115.73C298.773 115.749 300.911 114.89 302.496 113.344C304.08 111.797 304.981 109.688 305 107.482C305.019 105.276 304.154 103.152 302.596 101.579L255.971 54.482C255.796 54.3289 255.656 54.2091 255.515 54.0894Z" fill="#231F20"/>
<path d="M230.219 142.276C191.417 147.301 155.983 166.908 131.113 197.113C106.243 227.318 93.8028 265.857 96.3187 304.903C98.8346 343.948 116.118 380.572 144.659 407.335C173.2 434.099 210.857 448.996 249.984 449C289.11 449.004 326.771 434.115 355.317 407.358C383.864 380.6 401.155 343.98 403.679 304.935C406.203 265.891 393.771 227.349 368.908 197.138C344.045 166.928 308.614 147.314 269.813 142.28L266.779 165.668C299.638 169.931 329.643 186.541 350.698 212.125C371.754 237.709 382.282 270.349 380.145 303.414C378.007 336.479 363.364 367.491 339.189 390.151C315.014 412.811 283.121 425.42 249.986 425.416C216.852 425.413 184.961 412.797 160.791 390.132C136.621 367.467 121.984 336.452 119.854 303.386C117.723 270.32 128.258 237.683 149.319 212.104C170.381 186.524 200.389 169.92 233.249 165.664L230.219 142.276Z" fill="#231F20"/>
</svg>
