<svg xmlns="http://www.w3.org/2000/svg" width="100%" height="100%" viewBox="0 0 100 100"><path d="M84.61,50v-.06a10.13,10.13,0,0,1,5-8.86l4.9-2.83a5.6,5.6,0,0,0,2.05-7.64L90.07,19.39a5.6,5.6,0,0,0-7.65-2l-4.89,2.82a10.15,10.15,0,0,1-10.18-.11L67.23,20a10.14,10.14,0,0,1-5.16-8.75V5.6A5.6,5.6,0,0,0,56.47,0H43.53a5.6,5.6,0,0,0-5.6,5.6v5.64A10.14,10.14,0,0,1,32.77,20l-.12.07a10.15,10.15,0,0,1-10.18.11l-4.89-2.82a5.6,5.6,0,0,0-7.65,2L3.46,30.61a5.6,5.6,0,0,0,2.05,7.64l4.9,2.83a10.13,10.13,0,0,1,5,8.86v.12a10.13,10.13,0,0,1-5,8.86l-4.9,2.83a5.6,5.6,0,0,0-2,7.64L9.93,80.61a5.6,5.6,0,0,0,7.65,2l4.89-2.82a10.15,10.15,0,0,1,10.18.11l.12.07a10.14,10.14,0,0,1,5.16,8.75V94.4a5.6,5.6,0,0,0,5.6,5.6H56.47a5.6,5.6,0,0,0,5.6-5.6V88.76A10.14,10.14,0,0,1,67.23,80l.12-.07a10.15,10.15,0,0,1,10.18-.11l4.89,2.82a5.6,5.6,0,0,0,7.65-2l6.47-11.22a5.6,5.6,0,0,0-2.05-7.64l-4.9-2.83a10.13,10.13,0,0,1-5-8.86ZM65.52,50A15.52,15.52,0,1,1,50,34.48,15.52,15.52,0,0,1,65.52,50Z"/></svg>