<?xml version="1.0" encoding="utf-8"?>
<!-- Generator: Adobe Illustrator 26.3.1, SVG Export Plug-In . SVG Version: 6.00 Build 0)  -->
<svg version="1.1" id="Layer_1" xmlns="http://www.w3.org/2000/svg" xmlns:xlink="http://www.w3.org/1999/xlink" x="0px" y="0px"
	 viewBox="0 0 1080 1080" style="enable-background:new 0 0 1080 1080;" xml:space="preserve">
<path d="M728.04,1013.71L581.22,900.45c-3.9-3.01-5.93-7.83-5.36-12.72l12.3-105.59c0.06-0.84,0.11-1.67,0.17-2.51l2.86-151.09
	l0.48-25.54l92.15-3.65c2.53,0.26,5.02,0.51,7.55,0.77l357.87,89.03l-4.02-21.8c-1.41-7.67-6.09-14.35-12.82-18.3l-150.4-88.33
	c-4.87-2.86-7.55-8.36-6.79-13.96l2.63-19.47c0.01-2.83,0.02-5.63,0.03-8.46l-4.16-32.23c-1.73-13.4-11.6-24.31-24.76-27.36
	l-7.92-1.83c-4.86-0.01-9.54-0.03-14.41-0.04l-7.93,1.79c-13.17,2.97-23.12,13.82-24.92,27.2c-1.34,9.92-12.36,15.28-20.99,10.21
	L602.73,396.7c-4.37-2.57-7.01-7.29-6.92-12.35l1.15-60.51l2.39-125.96c-1.13-17.53-2.25-34.97-3.38-52.5l-9.04-60.82
	c-3.14-21.1-13.67-40.4-29.72-54.45l-4.56-3.99c-6.08-5.32-15.15-5.35-21.26-0.06l-4.58,3.96c-16.14,13.96-26.79,33.19-30.05,54.28
	l-9.4,60.76c-1.23,17.52-2.46,34.96-3.69,52.48l1.64,125.97l0.79,60.52c0.07,5.07-2.61,9.77-6.99,12.31l-170.63,98.86
	c-8.67,5.02-19.65-0.4-20.93-10.34c-1.73-13.39-11.6-24.3-24.76-27.35l-7.92-1.83c-4.86-0.01-9.54-0.03-14.41-0.04l-7.93,1.79
	c-13.18,2.97-23.12,13.82-24.92,27.2l-4.35,32.2c-0.01,2.83-0.02,5.63-0.03,8.46l2.51,19.49c0.72,5.6-1.99,11.09-6.88,13.92
	L47.94,646.13c-6.75,3.91-11.47,10.56-12.93,18.23l-4.15,21.77l358.4-86.9c2.53-0.24,5.02-0.48,7.55-0.73l92.13,4.19l0.33,25.54
	l1.96,151.1c0.05,0.84,0.1,1.67,0.15,2.51l11.67,105.66c0.54,4.89-1.52,9.71-5.44,12.69l-147.5,112.39
	c-9.47,7.22-15.04,18.43-15.08,30.33l-0.04,14.44l189.57-42.06l3.89,8.38c4.17,8.99,16.94,9.03,21.17,0.06l3.94-8.36l189.31,43.19
	l0.04-14.44C742.97,1032.22,737.47,1020.98,728.04,1013.71z M573.59,85.7l-9.61-7.75c-13.51-10.9-32.77-10.96-46.34-0.14l-9.65,7.7
	l0.01-4.5l9.67-14.31c13.57-10.82,32.84-10.77,46.34,0.14l9.59,14.37L573.59,85.7z"/>
</svg>
